<?xml version="1.0" encoding="utf-8"?>
<!-- Generator: Adobe Illustrator 16.0.0, SVG Export Plug-In . SVG Version: 6.00 Build 0)  -->
<!DOCTYPE svg PUBLIC "-//W3C//DTD SVG 1.1//EN" "http://www.w3.org/Graphics/SVG/1.1/DTD/svg11.dtd">
<svg version="1.1" id="Layer_1" xmlns="http://www.w3.org/2000/svg" xmlns:xlink="http://www.w3.org/1999/xlink" x="0px" y="0px"
	 width="24px" height="24px" viewBox="0 0 24 24" enable-background="new 0 0 24 24" xml:space="preserve">
<path fill="#F91E00" d="M20.947,8.305c-0.012-0.757-0.151-1.508-0.42-2.216c-0.469-1.209-1.424-2.165-2.633-2.633
	c-0.699-0.263-1.438-0.404-2.186-0.42C14.747,2.993,14.441,2.981,12,2.981c-2.442,0-2.755,0-3.71,0.055
	c-0.747,0.016-1.486,0.157-2.185,0.42C4.896,3.924,3.94,4.88,3.472,6.089C3.209,6.788,3.067,7.527,3.053,8.274
	c-0.043,0.963-0.056,1.268-0.056,3.71s0,2.754,0.056,3.709c0.015,0.748,0.156,1.486,0.419,2.188
	c0.469,1.208,1.424,2.164,2.634,2.633c0.696,0.271,1.435,0.426,2.185,0.449c0.963,0.043,1.268,0.057,3.71,0.057
	c2.442,0,2.755,0,3.71-0.057c0.747-0.015,1.486-0.156,2.186-0.419c1.209-0.469,2.164-1.425,2.633-2.633
	c0.264-0.7,0.404-1.438,0.42-2.187c0.043-0.963,0.056-1.268,0.056-3.71C21.003,9.572,21.003,9.262,20.947,8.305z M11.994,16.602
	c-2.554,0-4.623-2.068-4.623-4.623s2.069-4.623,4.623-4.623c2.552,0,4.623,2.069,4.623,4.623S14.546,16.602,11.994,16.602z
	 M16.801,8.263c-0.597,0-1.078-0.482-1.078-1.078s0.481-1.078,1.078-1.078c0.596,0,1.077,0.482,1.077,1.078
	S17.396,8.263,16.801,8.263z"/>
<circle fill="#F91E00" cx="11.994" cy="11.979" r="3.003"/>
</svg>
