<?xml version="1.0" encoding="utf-8"?>
<!-- Generator: Adobe Illustrator 16.0.0, SVG Export Plug-In . SVG Version: 6.00 Build 0)  -->
<!DOCTYPE svg PUBLIC "-//W3C//DTD SVG 1.1//EN" "http://www.w3.org/Graphics/SVG/1.1/DTD/svg11.dtd">
<svg version="1.1" id="Layer_1" xmlns="http://www.w3.org/2000/svg" xmlns:xlink="http://www.w3.org/1999/xlink" x="0px" y="0px"
	 width="24px" height="24px" viewBox="0 0 24 24" enable-background="new 0 0 24 24" xml:space="preserve">
<path fill="#F91E00" d="M19.633,7.997c0.014,0.175,0.014,0.349,0.014,0.523c0,5.325-4.054,11.46-11.46,11.46
	c-2.282,0-4.402-0.66-6.186-1.809c0.324,0.037,0.636,0.051,0.973,0.051c1.883,0,3.616-0.637,5.001-1.722
	c-1.771-0.037-3.255-1.196-3.767-2.793c0.249,0.037,0.499,0.062,0.761,0.062c0.361,0,0.724-0.05,1.061-0.137
	c-1.847-0.374-3.23-1.995-3.23-3.953V9.63c0.537,0.299,1.16,0.486,1.82,0.511C3.534,9.419,2.823,8.184,2.823,6.787
	c0-0.748,0.199-1.434,0.548-2.032c1.983,2.443,4.964,4.04,8.306,4.215c-0.062-0.3-0.1-0.611-0.1-0.923
	c0-2.22,1.796-4.028,4.028-4.028c1.16,0,2.207,0.486,2.942,1.272c0.91-0.175,1.782-0.512,2.556-0.973
	c-0.299,0.935-0.936,1.721-1.771,2.22c0.812-0.088,1.597-0.312,2.319-0.624C21.104,6.712,20.419,7.423,19.633,7.997z"/>
</svg>
